<svg xmlns="http://www.w3.org/2000/svg" xmlns:xlink="http://www.w3.org/1999/xlink" width="150" zoomAndPan="magnify" viewBox="0 0 112.5 30.000001" height="40" preserveAspectRatio="xMidYMid meet" version="1.0"><defs><g/><clipPath id="aaa812f0e4"><path d="M 94 9 L 110.445312 9 L 110.445312 25 L 94 25 Z M 94 9 " clip-rule="nonzero"/></clipPath><clipPath id="4667d37ed9"><path d="M 92 6 L 96 6 L 96 10 L 92 10 Z M 92 6 " clip-rule="nonzero"/></clipPath><clipPath id="7ab93805c5"><path d="M 97.058594 3.136719 L 96.242188 11.84375 L 78.824219 10.21875 L 79.636719 1.507812 Z M 97.058594 3.136719 " clip-rule="nonzero"/></clipPath><clipPath id="b28e7c1a62"><path d="M 97.058594 3.136719 L 96.242188 11.84375 L 78.824219 10.21875 L 79.636719 1.507812 Z M 97.058594 3.136719 " clip-rule="nonzero"/></clipPath><clipPath id="88b18a3d54"><path d="M 90 6 L 92 6 L 92 9 L 90 9 Z M 90 6 " clip-rule="nonzero"/></clipPath><clipPath id="e44932b187"><path d="M 97.058594 3.136719 L 96.242188 11.84375 L 78.824219 10.21875 L 79.636719 1.507812 Z M 97.058594 3.136719 " clip-rule="nonzero"/></clipPath><clipPath id="5aed8ff80f"><path d="M 97.058594 3.136719 L 96.242188 11.84375 L 78.824219 10.21875 L 79.636719 1.507812 Z M 97.058594 3.136719 " clip-rule="nonzero"/></clipPath><clipPath id="bb7d899335"><path d="M 88 5 L 89 5 L 89 6 L 88 6 Z M 88 5 " clip-rule="nonzero"/></clipPath><clipPath id="bf296cd5ab"><path d="M 97.058594 3.136719 L 96.242188 11.84375 L 78.824219 10.21875 L 79.636719 1.507812 Z M 97.058594 3.136719 " clip-rule="nonzero"/></clipPath><clipPath id="eece32106f"><path d="M 97.058594 3.136719 L 96.242188 11.84375 L 78.824219 10.21875 L 79.636719 1.507812 Z M 97.058594 3.136719 " clip-rule="nonzero"/></clipPath><clipPath id="8667f1e0ab"><path d="M 87 2 L 89 2 L 89 8 L 87 8 Z M 87 2 " clip-rule="nonzero"/></clipPath><clipPath id="8c8703dc6d"><path d="M 97.058594 3.136719 L 96.242188 11.84375 L 78.824219 10.21875 L 79.636719 1.507812 Z M 97.058594 3.136719 " clip-rule="nonzero"/></clipPath><clipPath id="4fdfb300e3"><path d="M 97.058594 3.136719 L 96.242188 11.84375 L 78.824219 10.21875 L 79.636719 1.507812 Z M 97.058594 3.136719 " clip-rule="nonzero"/></clipPath><clipPath id="ede1eb3b17"><path d="M 84 4 L 86 4 L 86 8 L 84 8 Z M 84 4 " clip-rule="nonzero"/></clipPath><clipPath id="51daf887ca"><path d="M 97.058594 3.136719 L 96.242188 11.84375 L 78.824219 10.21875 L 79.636719 1.507812 Z M 97.058594 3.136719 " clip-rule="nonzero"/></clipPath><clipPath id="1bc498dd6e"><path d="M 97.058594 3.136719 L 96.242188 11.84375 L 78.824219 10.21875 L 79.636719 1.507812 Z M 97.058594 3.136719 " clip-rule="nonzero"/></clipPath><clipPath id="9ef20d63a5"><path d="M 79 4 L 83 4 L 83 9 L 79 9 Z M 79 4 " clip-rule="nonzero"/></clipPath><clipPath id="03d73c7ff2"><path d="M 97.058594 3.136719 L 96.242188 11.84375 L 78.824219 10.21875 L 79.636719 1.507812 Z M 97.058594 3.136719 " clip-rule="nonzero"/></clipPath><clipPath id="c9e5a343d9"><path d="M 97.058594 3.136719 L 96.242188 11.84375 L 78.824219 10.21875 L 79.636719 1.507812 Z M 97.058594 3.136719 " clip-rule="nonzero"/></clipPath><clipPath id="b8872ddec3"><path d="M 79 8 L 81 8 L 81 10 L 79 10 Z M 79 8 " clip-rule="nonzero"/></clipPath><clipPath id="29c7082457"><path d="M 97.058594 3.136719 L 96.242188 11.84375 L 78.824219 10.21875 L 79.636719 1.507812 Z M 97.058594 3.136719 " clip-rule="nonzero"/></clipPath><clipPath id="4edc70e06b"><path d="M 97.058594 3.136719 L 96.242188 11.84375 L 78.824219 10.21875 L 79.636719 1.507812 Z M 97.058594 3.136719 " clip-rule="nonzero"/></clipPath><clipPath id="40f69e78b9"><path d="M 94 10 L 97 10 L 97 12 L 94 12 Z M 94 10 " clip-rule="nonzero"/></clipPath><clipPath id="983a10e4f3"><path d="M 97.058594 3.136719 L 96.242188 11.84375 L 78.824219 10.21875 L 79.636719 1.507812 Z M 97.058594 3.136719 " clip-rule="nonzero"/></clipPath><clipPath id="7412165a63"><path d="M 97.058594 3.136719 L 96.242188 11.84375 L 78.824219 10.21875 L 79.636719 1.507812 Z M 97.058594 3.136719 " clip-rule="nonzero"/></clipPath></defs><g fill="#ffffff" fill-opacity="1"><g transform="translate(1.612448, 24.357333)"><g><path d="M 8.265625 0.359375 C 6.785156 0.359375 5.347656 0.175781 3.953125 -0.1875 C 2.554688 -0.550781 1.421875 -1.039062 0.546875 -1.65625 L 2.25 -5.46875 C 3.070312 -4.925781 4.019531 -4.488281 5.09375 -4.15625 C 6.175781 -3.832031 7.242188 -3.671875 8.296875 -3.671875 C 10.285156 -3.671875 11.28125 -4.164062 11.28125 -5.15625 C 11.28125 -5.675781 10.992188 -6.0625 10.421875 -6.3125 C 9.859375 -6.570312 8.945312 -6.84375 7.6875 -7.125 C 6.3125 -7.414062 5.160156 -7.726562 4.234375 -8.0625 C 3.316406 -8.40625 2.523438 -8.953125 1.859375 -9.703125 C 1.191406 -10.453125 0.859375 -11.46875 0.859375 -12.75 C 0.859375 -13.863281 1.164062 -14.867188 1.78125 -15.765625 C 2.394531 -16.660156 3.304688 -17.367188 4.515625 -17.890625 C 5.722656 -18.421875 7.210938 -18.6875 8.984375 -18.6875 C 10.179688 -18.6875 11.363281 -18.550781 12.53125 -18.28125 C 13.707031 -18.007812 14.738281 -17.613281 15.625 -17.09375 L 14.03125 -13.25 C 12.28125 -14.1875 10.585938 -14.65625 8.953125 -14.65625 C 7.921875 -14.65625 7.171875 -14.5 6.703125 -14.1875 C 6.234375 -13.882812 6 -13.488281 6 -13 C 6 -12.519531 6.273438 -12.15625 6.828125 -11.90625 C 7.390625 -11.664062 8.289062 -11.414062 9.53125 -11.15625 C 10.925781 -10.851562 12.082031 -10.53125 13 -10.1875 C 13.914062 -9.851562 14.707031 -9.3125 15.375 -8.5625 C 16.050781 -7.820312 16.390625 -6.816406 16.390625 -5.546875 C 16.390625 -4.453125 16.082031 -3.457031 15.46875 -2.5625 C 14.851562 -1.675781 13.9375 -0.96875 12.71875 -0.4375 C 11.5 0.09375 10.015625 0.359375 8.265625 0.359375 Z M 8.265625 0.359375 "/></g></g></g><g fill="#ffffff" fill-opacity="1"><g transform="translate(18.534148, 24.357333)"><g><path d="M 8.71875 0.234375 C 7.195312 0.234375 5.828125 -0.078125 4.609375 -0.703125 C 3.390625 -1.335938 2.429688 -2.210938 1.734375 -3.328125 C 1.046875 -4.441406 0.703125 -5.707031 0.703125 -7.125 C 0.703125 -8.519531 1.046875 -9.773438 1.734375 -10.890625 C 2.429688 -12.003906 3.382812 -12.867188 4.59375 -13.484375 C 5.800781 -14.109375 7.175781 -14.421875 8.71875 -14.421875 C 10.25 -14.421875 11.625 -14.109375 12.84375 -13.484375 C 14.070312 -12.867188 15.023438 -12.003906 15.703125 -10.890625 C 16.378906 -9.785156 16.71875 -8.53125 16.71875 -7.125 C 16.71875 -5.707031 16.378906 -4.441406 15.703125 -3.328125 C 15.023438 -2.210938 14.070312 -1.335938 12.84375 -0.703125 C 11.625 -0.078125 10.25 0.234375 8.71875 0.234375 Z M 8.71875 -3.71875 C 9.59375 -3.71875 10.304688 -4.015625 10.859375 -4.609375 C 11.421875 -5.210938 11.703125 -6.050781 11.703125 -7.125 C 11.703125 -8.164062 11.421875 -8.984375 10.859375 -9.578125 C 10.304688 -10.171875 9.59375 -10.46875 8.71875 -10.46875 C 7.84375 -10.46875 7.125 -10.171875 6.5625 -9.578125 C 6.007812 -8.984375 5.734375 -8.164062 5.734375 -7.125 C 5.734375 -6.050781 6.007812 -5.210938 6.5625 -4.609375 C 7.125 -4.015625 7.84375 -3.71875 8.71875 -3.71875 Z M 8.71875 -3.71875 "/></g></g></g><g fill="#ffffff" fill-opacity="1"><g transform="translate(35.952774, 24.357333)"><g><path d="M 1.59375 -19.421875 L 6.5625 -19.421875 L 6.5625 0 L 1.59375 0 Z M 1.59375 -19.421875 "/></g></g></g><g fill="#ffffff" fill-opacity="1"><g transform="translate(44.139002, 24.357333)"><g><path d="M 6.75 0.234375 C 5.5625 0.234375 4.390625 0.0976562 3.234375 -0.171875 C 2.085938 -0.441406 1.164062 -0.796875 0.46875 -1.234375 L 1.96875 -4.625 C 2.613281 -4.226562 3.378906 -3.910156 4.265625 -3.671875 C 5.148438 -3.441406 6.03125 -3.328125 6.90625 -3.328125 C 7.707031 -3.328125 8.28125 -3.410156 8.625 -3.578125 C 8.96875 -3.742188 9.140625 -3.984375 9.140625 -4.296875 C 9.140625 -4.609375 8.929688 -4.828125 8.515625 -4.953125 C 8.109375 -5.085938 7.457031 -5.21875 6.5625 -5.34375 C 5.4375 -5.476562 4.472656 -5.660156 3.671875 -5.890625 C 2.878906 -6.117188 2.195312 -6.535156 1.625 -7.140625 C 1.050781 -7.753906 0.765625 -8.609375 0.765625 -9.703125 C 0.765625 -10.617188 1.03125 -11.425781 1.5625 -12.125 C 2.101562 -12.832031 2.894531 -13.390625 3.9375 -13.796875 C 4.976562 -14.210938 6.222656 -14.421875 7.671875 -14.421875 C 8.703125 -14.421875 9.722656 -14.316406 10.734375 -14.109375 C 11.742188 -13.898438 12.585938 -13.601562 13.265625 -13.21875 L 11.78125 -9.84375 C 10.519531 -10.539062 9.15625 -10.890625 7.6875 -10.890625 C 6.90625 -10.890625 6.332031 -10.796875 5.96875 -10.609375 C 5.601562 -10.429688 5.421875 -10.191406 5.421875 -9.890625 C 5.421875 -9.554688 5.617188 -9.320312 6.015625 -9.1875 C 6.421875 -9.0625 7.085938 -8.929688 8.015625 -8.796875 C 9.179688 -8.617188 10.144531 -8.414062 10.90625 -8.1875 C 11.675781 -7.96875 12.34375 -7.554688 12.90625 -6.953125 C 13.476562 -6.347656 13.765625 -5.503906 13.765625 -4.421875 C 13.765625 -3.535156 13.492188 -2.738281 12.953125 -2.03125 C 12.410156 -1.320312 11.613281 -0.765625 10.5625 -0.359375 C 9.507812 0.0351562 8.238281 0.234375 6.75 0.234375 Z M 6.75 0.234375 "/></g></g></g><g fill="#ffffff" fill-opacity="1"><g transform="translate(58.445291, 24.357333)"><g><path d="M 11.390625 -0.578125 C 10.960938 -0.316406 10.445312 -0.117188 9.84375 0.015625 C 9.25 0.160156 8.613281 0.234375 7.9375 0.234375 C 6.082031 0.234375 4.65625 -0.21875 3.65625 -1.125 C 2.664062 -2.03125 2.171875 -3.382812 2.171875 -5.1875 L 2.171875 -9.953125 L 0.109375 -9.953125 L 0.109375 -13.65625 L 2.171875 -13.65625 L 2.171875 -17.359375 L 7.140625 -17.359375 L 7.140625 -13.65625 L 10.390625 -13.65625 L 10.390625 -9.953125 L 7.140625 -9.953125 L 7.140625 -5.234375 C 7.140625 -4.722656 7.273438 -4.320312 7.546875 -4.03125 C 7.816406 -3.75 8.179688 -3.609375 8.640625 -3.609375 C 9.210938 -3.609375 9.71875 -3.757812 10.15625 -4.0625 Z M 11.390625 -0.578125 "/></g></g></g><g fill="#ffffff" fill-opacity="1"><g transform="translate(70.136171, 24.357333)"><g><path d="M 1.59375 -14.1875 L 6.5625 -14.1875 L 6.5625 0 L 1.59375 0 Z M 4.078125 -15.75 C 3.171875 -15.75 2.4375 -16.003906 1.875 -16.515625 C 1.320312 -17.023438 1.046875 -17.65625 1.046875 -18.40625 C 1.046875 -19.15625 1.320312 -19.78125 1.875 -20.28125 C 2.4375 -20.789062 3.171875 -21.046875 4.078125 -21.046875 C 4.992188 -21.046875 5.726562 -20.804688 6.28125 -20.328125 C 6.84375 -19.847656 7.125 -19.234375 7.125 -18.484375 C 7.125 -17.691406 6.84375 -17.035156 6.28125 -16.515625 C 5.726562 -16.003906 4.992188 -15.75 4.078125 -15.75 Z M 4.078125 -15.75 "/></g></g></g><g fill="#ffffff" fill-opacity="1"><g transform="translate(78.322399, 24.357333)"><g><path d="M 8.84375 0.234375 C 7.269531 0.234375 5.863281 -0.078125 4.625 -0.703125 C 3.394531 -1.335938 2.429688 -2.210938 1.734375 -3.328125 C 1.046875 -4.441406 0.703125 -5.707031 0.703125 -7.125 C 0.703125 -8.53125 1.046875 -9.785156 1.734375 -10.890625 C 2.429688 -12.003906 3.394531 -12.867188 4.625 -13.484375 C 5.863281 -14.109375 7.269531 -14.421875 8.84375 -14.421875 C 10.445312 -14.421875 11.832031 -14.078125 13 -13.390625 C 14.175781 -12.703125 15.007812 -11.742188 15.5 -10.515625 L 11.640625 -8.5625 C 10.992188 -9.832031 10.050781 -10.46875 8.8125 -10.46875 C 7.925781 -10.46875 7.191406 -10.171875 6.609375 -9.578125 C 6.023438 -8.984375 5.734375 -8.164062 5.734375 -7.125 C 5.734375 -6.050781 6.023438 -5.210938 6.609375 -4.609375 C 7.191406 -4.015625 7.925781 -3.71875 8.8125 -3.71875 C 10.050781 -3.71875 10.992188 -4.351562 11.640625 -5.625 L 15.5 -3.671875 C 15.007812 -2.441406 14.175781 -1.484375 13 -0.796875 C 11.832031 -0.109375 10.445312 0.234375 8.84375 0.234375 Z M 8.84375 0.234375 "/></g></g></g><g clip-path="url(#aaa812f0e4)"><g fill="#ffffff" fill-opacity="1"><g transform="translate(94.093316, 24.357333)"><g><path d="M 16.09375 -7.0625 C 16.09375 -7.03125 16.066406 -6.625 16.015625 -5.84375 L 5.703125 -5.84375 C 5.910156 -5.101562 6.316406 -4.535156 6.921875 -4.140625 C 7.523438 -3.753906 8.28125 -3.5625 9.1875 -3.5625 C 9.863281 -3.5625 10.453125 -3.65625 10.953125 -3.84375 C 11.453125 -4.039062 11.953125 -4.359375 12.453125 -4.796875 L 15.078125 -2.0625 C 13.691406 -0.53125 11.675781 0.234375 9.03125 0.234375 C 7.375 0.234375 5.914062 -0.078125 4.65625 -0.703125 C 3.40625 -1.335938 2.429688 -2.210938 1.734375 -3.328125 C 1.046875 -4.441406 0.703125 -5.707031 0.703125 -7.125 C 0.703125 -8.519531 1.035156 -9.769531 1.703125 -10.875 C 2.378906 -11.976562 3.3125 -12.84375 4.5 -13.46875 C 5.6875 -14.101562 7.019531 -14.421875 8.5 -14.421875 C 9.914062 -14.421875 11.195312 -14.128906 12.34375 -13.546875 C 13.5 -12.960938 14.410156 -12.113281 15.078125 -11 C 15.753906 -9.894531 16.09375 -8.582031 16.09375 -7.0625 Z M 8.53125 -10.890625 C 7.757812 -10.890625 7.117188 -10.671875 6.609375 -10.234375 C 6.097656 -9.796875 5.769531 -9.203125 5.625 -8.453125 L 11.4375 -8.453125 C 11.300781 -9.203125 10.972656 -9.796875 10.453125 -10.234375 C 9.941406 -10.671875 9.300781 -10.890625 8.53125 -10.890625 Z M 8.53125 -10.890625 "/></g></g></g></g><g clip-path="url(#4667d37ed9)"><g clip-path="url(#7ab93805c5)"><g clip-path="url(#b28e7c1a62)"><path fill="#ffffff" d="M 92.667969 9.65625 C 93.796875 8.851562 94.742188 7.847656 95.675781 6.816406 C 96.027344 6.433594 95.367188 5.9375 95.027344 6.339844 C 94.140625 7.34375 93.1875 8.285156 92.324219 9.324219 C 92.117188 9.542969 92.453125 9.796875 92.667969 9.65625 Z M 92.667969 9.65625 " fill-opacity="1" fill-rule="nonzero"/></g></g></g><g clip-path="url(#88b18a3d54)"><g clip-path="url(#e44932b187)"><g clip-path="url(#5aed8ff80f)"><path fill="#ffffff" d="M 90.566406 8.207031 C 90.785156 8.015625 90.898438 7.730469 91.023438 7.472656 C 91.171875 7.144531 91.300781 6.828125 91.449219 6.496094 C 91.59375 6.152344 91.054688 5.9375 90.917969 6.300781 C 90.722656 6.863281 90.328125 7.542969 90.386719 8.144531 C 90.378906 8.21875 90.503906 8.257812 90.566406 8.207031 Z M 90.566406 8.207031 " fill-opacity="1" fill-rule="nonzero"/></g></g></g><g clip-path="url(#bb7d899335)"><g clip-path="url(#bf296cd5ab)"><g clip-path="url(#eece32106f)"><path fill="#ffffff" d="M 88.09375 5.8125 C 88.089844 5.855469 88.144531 5.859375 88.148438 5.816406 C 88.152344 5.773438 88.097656 5.765625 88.09375 5.8125 Z M 88.09375 5.8125 " fill-opacity="1" fill-rule="nonzero"/></g></g></g><g clip-path="url(#8667f1e0ab)"><g clip-path="url(#8c8703dc6d)"><g clip-path="url(#4fdfb300e3)"><path fill="#ffffff" d="M 88.042969 7.730469 C 88.367188 6.105469 88.550781 4.453125 88.761719 2.800781 C 88.816406 2.386719 88.1875 2.328125 88.132812 2.742188 C 87.921875 4.394531 87.699219 6.027344 87.613281 7.691406 C 87.601562 7.972656 87.988281 7.996094 88.042969 7.730469 Z M 88.042969 7.730469 " fill-opacity="1" fill-rule="nonzero"/></g></g></g><g clip-path="url(#ede1eb3b17)"><g clip-path="url(#51daf887ca)"><g clip-path="url(#1bc498dd6e)"><path fill="#ffffff" d="M 85.433594 7.5625 C 85.394531 6.574219 85.167969 5.628906 84.894531 4.675781 C 84.820312 4.402344 84.425781 4.453125 84.453125 4.757812 C 84.566406 5.734375 84.71875 6.703125 85.082031 7.617188 C 85.136719 7.804688 85.445312 7.757812 85.433594 7.5625 Z M 85.433594 7.5625 " fill-opacity="1" fill-rule="nonzero"/></g></g></g><g clip-path="url(#9ef20d63a5)"><g clip-path="url(#03d73c7ff2)"><g clip-path="url(#c9e5a343d9)"><path fill="#ffffff" d="M 82.804688 8.078125 C 82.542969 7.441406 82.019531 6.886719 81.609375 6.339844 C 81.160156 5.730469 80.726562 5.109375 80.265625 4.5 C 79.996094 4.144531 79.523438 4.578125 79.75 4.941406 C 80.148438 5.59375 80.597656 6.199219 81.074219 6.796875 C 81.503906 7.316406 81.949219 7.96875 82.519531 8.320312 C 82.683594 8.410156 82.871094 8.261719 82.804688 8.078125 Z M 82.804688 8.078125 " fill-opacity="1" fill-rule="nonzero"/></g></g></g><g clip-path="url(#b8872ddec3)"><g clip-path="url(#29c7082457)"><g clip-path="url(#4edc70e06b)"><path fill="#ffffff" d="M 79.085938 8.476562 C 79.273438 8.792969 79.660156 8.964844 79.960938 9.15625 C 80.273438 9.363281 80.609375 8.871094 80.296875 8.664062 C 79.984375 8.457031 79.648438 8.171875 79.265625 8.121094 C 79.0625 8.101562 79 8.335938 79.085938 8.476562 Z M 79.085938 8.476562 " fill-opacity="1" fill-rule="nonzero"/></g></g></g><g clip-path="url(#40f69e78b9)"><g clip-path="url(#983a10e4f3)"><g clip-path="url(#7412165a63)"><path fill="#ffffff" d="M 94.507812 11.601562 C 95.050781 11.488281 95.546875 11.265625 96.058594 11.046875 C 96.328125 10.949219 96.144531 10.574219 95.894531 10.65625 C 95.386719 10.832031 94.878906 11.007812 94.421875 11.28125 C 94.265625 11.386719 94.316406 11.644531 94.507812 11.601562 Z M 94.507812 11.601562 " fill-opacity="1" fill-rule="nonzero"/></g></g></g></svg>